<svg width="56" height="56" viewBox="0 0 56 56" fill="none" xmlns="http://www.w3.org/2000/svg">
<g id="Icon">
<path d="M14.896 38.3405C14.5299 38.7073 14.3245 39.2045 14.325 39.7228C14.3254 40.241 14.5318 40.7379 14.8986 41.104C15.2654 41.4701 15.7627 41.6755 16.2809 41.6751C16.7992 41.6746 17.296 41.4682 17.6621 41.1014L14.896 38.3405ZM23.7206 35.0352C23.9071 34.8549 24.0558 34.6393 24.158 34.4009C24.2603 34.1625 24.3141 33.9061 24.3162 33.6467C24.3183 33.3874 24.2688 33.1302 24.1704 32.8901C24.0721 32.6501 23.927 32.4321 23.7435 32.2487C23.5599 32.0654 23.3418 31.9204 23.1016 31.8223C22.8615 31.7242 22.6043 31.6749 22.3449 31.6773C22.0855 31.6797 21.8292 31.7337 21.5909 31.8362C21.3526 31.9387 21.1371 32.0876 20.957 32.2742L23.7206 35.0352ZM33.1155 18.8968L37.1293 22.9157L39.8928 20.1548L35.8817 16.1358L33.1155 18.8968ZM26.4372 34.9935L21.0716 29.6227L18.3107 32.3836L23.6711 37.7492L26.4372 34.9935ZM35.8661 28.7684L33.3682 29.7061L34.7434 33.363L37.2387 32.4253L35.8661 28.7684ZM26.3591 22.6605L27.2655 20.1861L23.5955 18.8421L22.6917 21.3139L26.3591 22.6605ZM21.8061 26.854C22.6605 26.6196 23.5721 26.3982 24.3248 25.8564L22.0432 22.6865C21.9911 22.723 21.9077 22.7751 20.7669 23.0903L21.8061 26.854ZM22.6917 21.3165C22.2854 22.4261 22.2229 22.5094 22.1838 22.5563L25.1583 25.0906C25.7574 24.3848 26.0543 23.494 26.3591 22.6605L22.6917 21.3165ZM24.3248 25.8564C24.6322 25.6341 24.91 25.3789 25.1583 25.0906L22.1838 22.5563C22.1425 22.6053 22.0952 22.6491 22.0432 22.6865L24.3248 25.8564ZM33.3682 29.7113C32.5399 30.0212 31.6543 30.3234 30.9537 30.9276L33.5114 33.8813C33.5583 33.8422 33.6417 33.7823 34.7434 33.3656L33.3682 29.7113ZM32.9827 35.293C33.2953 34.1574 33.35 34.0688 33.3864 34.0194L30.2114 31.7429C29.6722 32.4956 29.4508 33.4021 29.2164 34.2564L32.9827 35.293ZM30.9537 30.9276C30.675 31.1693 30.4259 31.4429 30.2114 31.7429L33.3864 34.0194C33.4233 33.9684 33.4635 33.922 33.5114 33.8813L30.9537 30.9276ZM21.0742 29.6279C20.2147 28.7684 19.6938 28.2396 19.3656 27.8307C19.0348 27.414 19.1676 27.4296 19.1676 27.6718L15.2607 27.6979C15.2685 28.7892 15.8128 29.6409 16.3103 30.2635C16.8052 30.8886 17.5215 31.597 18.3107 32.3889L21.0742 29.6279ZM20.7669 23.0903C19.6912 23.3872 18.7196 23.6503 17.9773 23.9498C17.2376 24.2441 16.3442 24.7129 15.7972 25.661L19.1833 27.6119C19.0608 27.8229 18.941 27.7734 19.4333 27.5755C19.9204 27.3801 20.634 27.1796 21.8035 26.8566L20.7669 23.0903ZM19.1676 27.6718C19.1676 27.651 19.1728 27.631 19.1833 27.6119L15.7972 25.661C15.4422 26.279 15.257 26.9852 15.2607 27.6979L19.1676 27.6718ZM23.6737 37.757C24.4681 38.5515 25.1818 39.2703 25.8095 39.773C26.4346 40.2705 27.2941 40.8201 28.3933 40.8227L28.4011 36.9157C28.646 36.9157 28.6616 37.046 28.2448 36.7152C27.8307 36.387 27.302 35.8582 26.4372 34.9935L23.6737 37.757ZM29.2164 34.2564C28.8934 35.4337 28.6902 36.1578 28.4949 36.6501C28.2943 37.1449 28.2422 37.0199 28.4558 36.8975L30.3911 40.294C31.347 39.747 31.8236 38.8484 32.1206 38.1061C32.4201 37.3585 32.6858 36.3792 32.9827 35.293L29.2164 34.2564ZM28.3933 40.8227C29.0966 40.8227 29.7842 40.6404 30.3911 40.294L28.4558 36.8975C28.4394 36.9077 28.4204 36.9157 28.4011 36.9157L28.3933 40.8227ZM37.1293 22.9157C38.5358 24.3223 39.4318 25.2313 39.9684 25.9528C40.221 26.294 40.32 26.4997 40.3565 26.6091L40.3721 26.6769V26.6847L44.1905 27.5103C44.5239 25.958 43.8753 24.6635 43.107 23.6268C42.3594 22.6162 41.2108 21.4754 39.8928 20.1574L37.1293 22.9157ZM37.2387 32.4253C38.9838 31.7715 40.4997 31.2089 41.5989 30.5995C42.7267 29.9743 43.8545 29.0627 44.1905 27.5103L40.3721 26.6847L40.3695 26.6925L40.3252 26.7446C40.1395 26.9203 39.9288 27.0678 39.7001 27.1822C38.9187 27.6197 37.7284 28.0677 35.8661 28.7684L37.2387 32.4253ZM35.8791 16.1358C34.5533 14.8075 33.4047 13.6536 32.3888 12.9009C31.3496 12.1273 30.0473 11.4735 28.4871 11.8173L29.3284 15.6279L29.3492 15.6305L29.4013 15.6462C29.6399 15.743 29.8629 15.8746 30.0629 16.0369C30.787 16.576 31.6986 17.4798 33.1155 18.902L35.8791 16.1358ZM27.2629 20.1887C27.9557 18.3055 28.4011 17.1048 28.8335 16.3103C28.956 16.0634 29.1168 15.8375 29.3101 15.641L29.3232 15.6331H29.3284L28.4871 11.8173C26.9269 12.1611 26.0205 13.302 25.4006 14.4428C24.7989 15.5524 24.2415 17.0839 23.5955 18.8473L27.2629 20.1887ZM17.6621 41.1066L23.7206 35.0352L20.957 32.2769L14.896 38.3405L17.6621 41.1066Z" fill="white"/>
<path fill-rule="evenodd" clip-rule="evenodd" d="M27.9968 3.90701C23.7689 3.90003 19.6145 5.01176 15.9552 7.12934C15.0214 7.66971 13.8263 7.35077 13.2859 6.41697C12.7456 5.48317 13.0645 4.28812 13.9983 3.74775C18.2538 1.28518 23.085 -0.00778833 28.0016 3.52949e-05C43.4652 0.000905777 56 12.5362 56 28C56 43.4644 43.4644 56 28 56C12.5356 56 0 43.4644 0 28C0 22.9047 1.3635 18.1168 3.74789 13.998C4.28842 13.0643 5.48353 12.7456 6.41724 13.2861C7.35094 13.8267 7.66967 15.0218 7.12914 15.9555C5.0804 19.4944 3.90698 23.6092 3.90698 28C3.90698 41.3066 14.6934 52.093 28 52.093C41.3066 52.093 52.093 41.3066 52.093 28C52.093 14.6934 41.3066 3.90701 28 3.90701L27.9968 3.90701Z" fill="white"/>
</g>
</svg>
